<?xml version="1.0"?>
<svg width="205" height="227" xmlns="http://www.w3.org/2000/svg" xmlns:svg="http://www.w3.org/2000/svg" enable-background="new 0 0 500 500" version="1.1" xml:space="preserve">
 <!-- Created with SVG-edit - https://github.com/SVG-Edit/svgedit-->
 <g class="layer">
  <title>Layer 1</title>
  <g id="svg_1">
   <text fill="#2D3640" font-family="Courier" font-size="45" font-weight="bold" id="svg_2" letter-spacing="0" textLength="152" transform="matrix(1 0 0 1 117.205 354.721)" word-spacing="0" x="-91.96" y="-141.89">tsybin</text>
   <path d="m202.85,161.31c-4.4,-17.13 -13.93,-32.62 -27.65,-45.06c0.06,-0.19 0.1,-0.39 0.16,-0.59c0.07,-0.25 0.13,-0.51 0.2,-0.77c0.13,-0.52 0.24,-1.04 0.34,-1.58c0.05,-0.24 0.1,-0.48 0.14,-0.73c0.1,-0.62 0.17,-1.25 0.23,-1.88c0.02,-0.17 0.04,-0.33 0.05,-0.49c0.07,-0.83 0.11,-1.67 0.11,-2.53c0,-0.94 -0.03,-1.92 -0.09,-2.93c-0.92,-17.63 -9.81,-42.21 -23.19,-63.73c-7.68,-12.33 -28.07,-41.02 -51.6,-41.02c-0.15,0 -0.3,0.02 -0.45,0.02c-23.35,0.35 -43.54,28.75 -51.17,41c-13.4,21.54 -22.29,46.15 -23.19,63.79c-0.06,0.98 -0.09,1.94 -0.09,2.87c0,0.85 0.04,1.68 0.1,2.49c0.02,0.23 0.05,0.44 0.07,0.66c0.06,0.57 0.12,1.14 0.21,1.7c0.05,0.29 0.11,0.59 0.16,0.88c0.1,0.48 0.2,0.95 0.31,1.42c0.08,0.3 0.15,0.59 0.23,0.88c0.05,0.18 0.09,0.37 0.15,0.54c-13.74,12.46 -23.26,27.96 -27.66,45.11c-0.04,0.14 -0.07,0.28 -0.1,0.42c-0.01,0.04 -0.02,0.09 -0.02,0.13c-0.01,0.02 -0.01,0.04 -0.01,0.05c-0.02,0.14 -0.04,0.27 -0.05,0.41c-0.01,0.03 -0.01,0.06 -0.01,0.09c0,0.04 -0.01,0.09 -0.01,0.13c0,0.11 -0.02,0.21 -0.02,0.32c0,1.14 0.34,2.21 0.9,3.11c0,0 0.01,0 0.01,0c0,0 0,0 0,0c0.1,0.16 0.21,0.32 0.32,0.47c0,0 0.01,0 0.01,0c0,0 0,0 0,0c0.77,0.99 1.85,1.73 3.1,2.06c0.02,0.01 0.04,0.02 0.07,0.02c0.02,0 0.04,0.01 0.06,0.01c0.16,0.04 0.34,0.07 0.51,0.1c0.01,0 0.01,0 0.02,0c0.06,0.01 0.13,0.02 0.19,0.03c0,0 0.01,0 0.01,0c0.2,0.03 0.4,0.04 0.6,0.04c0.02,0 0.03,0 0.05,0c0.01,0 0.01,0 0.02,0l191.37,0c0.48,0 0.96,-0.06 1.41,-0.18c0.01,0 0.02,0 0.02,0c0.02,0 0.03,-0.01 0.04,-0.01c2.51,-0.65 4.37,-2.93 4.37,-5.65c0,-0.55 -0.09,-1.09 -0.23,-1.6zm-141.23,-114.02c14.09,-21.63 29.76,-35.61 39.93,-35.61c0.05,0 0.11,0 0.17,0.01c10.17,0.16 25.74,14.09 39.74,35.61c13.94,21.39 23.3,45.66 23.3,60.38c0,2.91 -0.56,5.37 -1.69,7.53c-0.1,0.16 -0.27,0.33 -0.5,0.5c0,0.01 -0.01,0.01 -0.01,0.01c-0.1,0.08 -0.21,0.15 -0.33,0.23c-0.03,0.01 -0.05,0.03 -0.08,0.04c-0.1,0.06 -0.21,0.12 -0.32,0.18c-0.07,0.04 -0.13,0.07 -0.21,0.11c-0.66,0.34 -1.48,0.67 -2.37,0.98c0.22,-1.47 0.35,-2.96 0.37,-4.47c0.02,-0.24 0.02,-0.47 0.02,-0.7c0,-24.5 -25.95,-37.11 -57.97,-37.11s-57.98,12.61 -57.98,37.11c0,0.23 0,0.46 0.02,0.7c0.03,1.54 0.16,3.06 0.39,4.56c-0.96,-0.33 -1.84,-0.67 -2.56,-1.02c-0.04,-0.03 -0.09,-0.05 -0.13,-0.07c-0.1,-0.05 -0.2,-0.1 -0.29,-0.16c-0.11,-0.06 -0.22,-0.12 -0.31,-0.18c-0.06,-0.04 -0.11,-0.07 -0.16,-0.11c-0.11,-0.07 -0.21,-0.15 -0.3,-0.23c-0.03,-0.02 -0.06,-0.04 -0.08,-0.06c-0.11,-0.11 -0.2,-0.21 -0.25,-0.31c-1.14,-2.16 -1.69,-4.62 -1.69,-7.53c0,-14.72 9.36,-38.99 23.29,-60.39zm52.94,51.24c-1.74,0 -3.14,-1.4 -3.14,-3.14c0,-1.74 1.41,-3.15 3.14,-3.15l9.72,0c1.74,0 3.15,1.41 3.15,3.15l0,23.7c0,1.74 -1.41,3.14 -3.15,3.14l-9.72,0c-1.74,0 -3.14,-1.4 -3.14,-3.14c0,-1.73 1.41,-3.14 3.14,-3.14l6.58,0l0,-17.42l-6.58,0zm-4.47,-7.95l-11.1,35.21c-0.42,1.35 -1.66,2.2 -3,2.2c-0.3,0 -0.63,-0.04 -0.94,-0.14c-1.65,-0.52 -2.58,-2.29 -2.05,-3.95l11.09,-35.2c0.52,-1.67 2.29,-2.58 3.94,-2.06c1.66,0.52 2.58,2.29 2.06,3.94zm-21.57,25.37c1.74,0 3.15,1.41 3.15,3.14c0,1.74 -1.41,3.14 -3.15,3.14l-9.72,0c-1.74,0 -3.14,-1.4 -3.14,-3.14l0,-23.7c0,-1.74 1.4,-3.14 3.14,-3.14l9.72,0c1.74,0 3.15,1.41 3.15,3.14c0,1.74 -1.41,3.14 -3.15,3.14l-6.57,0l0,17.42l6.57,0zm-74.74,41.12c4.26,-11.67 11.38,-22.3 20.94,-31.23c2.14,1.33 4.63,2.29 7.18,3.09l0,-0.01c1.62,0.5 3.26,0.95 4.85,1.38c0.93,0.24 1.84,0.49 2.7,0.73c0,0.01 0.01,0.01 0.02,0.01c0.01,0 0.01,0.01 0.02,0.01c0.01,0 0.02,0.01 0.03,0.01c15.96,6.68 37.72,4.51 48.09,17.9c2.11,2.72 6.15,2.75 8.35,0.09c10.6,-12.83 32.29,-11.31 48.21,-18.12c0,-0.02 0.01,-0.03 0.02,-0.05c0.69,-0.19 1.4,-0.38 2.13,-0.57c3.79,-1.02 7.87,-2.12 11.24,-4.01c0.03,-0.02 0.06,-0.04 0.09,-0.05c0.24,-0.14 0.48,-0.27 0.71,-0.41c9.56,8.94 16.68,19.56 20.95,31.23l-175.53,0z" fill="#2D3640" id="svg_3"/>
   <text fill="#9953e0" font-family="Cursive" font-size="22" font-style="italic" font-weight="bold" id="svg_4" letter-spacing="2" stroke="#000000" text-anchor="middle" textLength="78" transform="matrix(0.786837 0 0 0.863873 58.5939 42.9455)" x="146.85" xml:space="preserve" y="167.45">&lt;/dev&gt;</text>
  </g>
 </g>
</svg>